:SAMPLES-PER-SECOND 30
:FULLY-SPECIFIED
:DEGREES
410
root  6.7603 34.981 2.56035 165.43 61.1836 156.606
RightUpLeg  -41.0956 -12.3474 -14.0369
RightLeg  56.7038 -3.53515 -6.22521
RightFoot  -18.0419 -0.11432 0.131439
RightToes  -1.81608e-008 0 -3.6325e-017
Spine  20.1357 -3.02256 -6.39035
Spine1  -5.94289 -5.40939 9.57489
HEad  -27.888 -15.0788 2.06673
LeftShoulder1  0.187789 2.78807 -19.7014
LeftArm  -4.16384 -19.9572 -51.6033
LeftForeArm  3.17159 -62.9952 -22.6575
LeftHand  -0.106813 7.32847 -3.67058
RightShoulder  -0.340016 -4.82072 18.7259
RightArm  -15.0675 9.11766 32.7343
RightForeArm  17.5775 75.5613 52.9953
RightHand  -0.185084 0.347016 -3.80908
LeftUpLeg  -15.0526 13.7201 19.6879
LeftLeg  10.0098 -17.8793 -2.52909
LeftFoot  1.24509 2.65912 -23.8572
LeftToes  1.81866e-011 -6.13092e-011 2.52013e-011
411
root  7.25021 35.2729 2.73084 164.317 60.5615 155.768
RightUpLeg  -39.2406 -11.5857 -14.3491
RightLeg  55.8124 -4.25842 -7.14444
RightFoot  -18.1481 -0.134372 -0.19286
RightToes  -1.81608e-008 0 -3.6325e-017
Spine  19.6473 -3.18334 -7.8685
Spine1  -5.29316 -5.90489 10.1689
HEad  -28.5463 -17.2745 2.35385
LeftShoulder1  0.185753 2.80018 -19.875
LeftArm  -3.82137 -20.1891 -51.3046
LeftForeArm  2.86601 -62.833 -22.5115
LeftHand  -0.121722 7.75769 -3.63331
RightShoulder  -0.322371 -4.74764 18.7902
RightArm  -14.6864 8.22206 32.662
RightForeArm  18.9567 75.7265 53.7644
RightHand  -0.156105 0.818839 -3.01226
LeftUpLeg  -16.314 14.5636 18.2517
LeftLeg  8.21165 -12.8412 -1.4114
LeftFoot  0.485791 2.26215 -21.6431
LeftToes  1.81866e-011 -6.13092e-011 2.52013e-011
412
root  7.70978 35.5033 2.88471 163.645 59.7907 155.536
RightUpLeg  -37.3718 -11.3903 -14.3826
RightLeg  55.0949 -4.87733 -7.88818
RightFoot  -18.4195 -0.175657 -0.825306
RightToes  -1.81608e-008 0 -3.6325e-017
Spine  19.2855 -3.34938 -9.32498
Spine1  -4.66458 -6.38984 10.7086
HEad  -29.069 -20.1354 3.16448
LeftShoulder1  0.192819 2.77175 -19.81
LeftArm  -3.27071 -20.6502 -51.1342
LeftForeArm  2.55053 -62.5956 -22.2872
LeftHand  -0.125912 7.91329 -3.57634
RightShoulder  -0.286379 -4.61376 18.614
RightArm  -14.729 6.95313 32.8945
RightForeArm  20.2128 75.9561 55.1394
RightHand  -0.14971 0.455562 -3.04191
LeftUpLeg  -17.9568 14.7862 17.0722
LeftLeg  6.86502 -8.02895 -0.862762
LeftFoot  0.0880832 2.00541 -19.8784
LeftToes  1.81866e-011 -6.13092e-011 2.52013e-011
413
root  8.13078 35.6413 3.0034 162.976 59.5722 155.605
RightUpLeg  -35.6184 -11.1252 -14.1109
RightLeg  54.6685 -5.26806 -8.3423
RightFoot  -18.9318 -0.185253 -0.871467
RightToes  -1.81608e-008 0 -3.6325e-017
Spine  19.1943 -3.34245 -9.89154
Spine1  -4.25721 -6.46121 10.4157
HEad  -29.061 -23.9307 4.30598
LeftShoulder1  0.187067 2.78194 -19.3594
LeftArm  -2.51437 -21.2373 -51.1949
LeftForeArm  2.1807 -62.1316 -21.8361
LeftHand  -0.125443 7.53862 -4.22248
RightShoulder  -0.297458 -4.65884 18.5783
RightArm  -14.6803 5.38091 33.2655
RightForeArm  22.1452 76.2556 57.005
RightHand  -0.139481 0.843281 -2.68602
LeftUpLeg  -19.4305 14.7414 16.3907
LeftLeg  5.98678 -6.01008 -0.811198
LeftFoot  0.126159 1.91658 -18.948
LeftToes  1.81866e-011 -6.13092e-011 2.52013e-011
414
root  8.52665 35.6734 3.0287 162.137 59.6705 155.776
RightUpLeg  -33.8972 -11.2408 -13.8338
RightLeg  54.6605 -5.26579 -8.3358
RightFoot  -19.7994 -0.195076 -0.809716
RightToes  -1.81608e-008 0 -3.6325e-017
Spine  19.2664 -3.2759 -10.1062
Spine1  -3.98512 -6.42423 10.003
HEad  -28.5086 -27.3238 5.21591
LeftShoulder1  0.183217 2.79544 -19.2879
LeftArm  -1.64046 -22.0707 -50.9219
LeftForeArm  1.59444 -61.5614 -21.3138
LeftHand  -0.132104 7.84217 -3.94367
RightShoulder  -0.344129 -4.82181 19.0189
RightArm  -14.4724 4.13637 33.3838
RightForeArm  24.3304 76.5108 58.6073
RightHand  -0.112633 0.592924 -2.25869
LeftUpLeg  -20.8377 14.4 15.8499
LeftLeg  5.68476 -6.38953 -0.822685
LeftFoot  0.486604 2.01183 -19.29
LeftToes  1.81866e-011 -6.13092e-011 2.52013e-011
415
root  8.93974 35.6252 3.027 161.091 60.5761 155.95
RightUpLeg  -32.324 -11.4087 -13.294
RightLeg  54.9583 -4.66383 -7.52506
RightFoot  -20.8819 -0.257414 -1.41187
RightToes  -1.81608e-008 0 -3.6325e-017
Spine  19.4 -2.94343 -10.4398
Spine1  -3.61932 -6.16611 9.78417
HEad  -27.552 -29.8526 5.4789
LeftShoulder1  0.152189 2.90655 -18.894
LeftArm  -1.40647 -22.2673 -50.6116
LeftForeArm  1.27387 -61.4345 -21.2218
LeftHand  -0.134232 7.88367 -3.96597
RightShoulder  -0.36475 -4.88433 19.3684
RightArm  -14.027 3.28102 33.7937
RightForeArm  26.274 76.7701 60.5334
RightHand  -0.134077 0.717967 -2.63883
LeftUpLeg  -21.7106 14.5913 15.9274
LeftLeg  5.41389 -7.96574 -1.07854
LeftFoot  1.33045 2.212 -19.8213
LeftToes  1.81866e-011 -6.13092e-011 2.52013e-011
416
root  9.34692 35.478 2.98864 159.808 61.9653 155.427
RightUpLeg  -31.4922 -11.3457 -12.9207
RightLeg  55.6646 -3.8274 -6.43312
RightFoot  -22.4651 -0.238957 -0.885213
RightToes  -1.81608e-008 0 -3.6325e-017
Spine  19.3385 -2.52455 -10.7601
Spine1  -3.75491 -5.66534 9.18943
HEad  -26.5582 -31.8521 5.71908
LeftShoulder1  0.165296 2.85497 -18.9219
LeftArm  -1.38514 -22.0393 -49.8514
LeftForeArm  1.11605 -61.5878 -21.3906
LeftHand  -0.14272 8.14366 -3.88032
RightShoulder  -0.334419 -4.76476 19.4241
RightArm  -13.7206 2.51667 34.4015
RightForeArm  25.8404 76.6503 59.3932
RightHand  -0.104864 0.883092 -2.03747
LeftUpLeg  -22.7862 14.8282 16.0212
LeftLeg  5.25855 -8.50578 -1.21939
LeftFoot  2.152 2.41406 -20.3303
LeftToes  1.81866e-011 -6.13092e-011 2.52013e-011
